HIERARCHY
ROOT Hips
{
  OFFSET 373.837 88.1643 177.628
  CHANNELS 6 Xposition Yposition Zposition Zrotation Xrotation Yrotation
  JOINT RightUpLeg
  {
    OFFSET -9.27602 -1.55371 -0.0617006
    CHANNELS 3 Zrotation Xrotation Yrotation
    JOINT RightLeg
    {
      OFFSET 0.0569767 -41.8713 0.0644562
      CHANNELS 3 Zrotation Xrotation Yrotation
      JOINT RightFoot
      {
        OFFSET -0.463049 -43.0064 -0.0336586
        CHANNELS 3 Zrotation Xrotation Yrotation
        End Site
        {
          OFFSET 0 -7.69 17.5
        }
      }
    }
  }
  JOINT LeftUpLeg
  {
    OFFSET 9.29312 -1.63815 0.0236341
    CHANNELS 3 Zrotation Xrotation Yrotation
    JOINT LeftLeg
    {
      OFFSET 0.0670365 -41.8776 -0.0578197
      CHANNELS 3 Zrotation Xrotation Yrotation
      JOINT LeftFoot
      {
        OFFSET 0.591956 -40.8352 0.210268
        CHANNELS 3 Zrotation Xrotation Yrotation
        End Site
        {
          OFFSET 0 -7.69 17.5
        }
      }
    }
  }
  JOINT Spine
  {
    OFFSET 0.0229142 14.2949 0.0394214
    CHANNELS 3 Zrotation Xrotation Yrotation
    JOINT Spine1
    {
      OFFSET 0.0328969 9.71943 0.0194292
      CHANNELS 3 Zrotation Xrotation Yrotation
      JOINT Spine2
      {
        OFFSET 0.0292955 10.1244 -0.00440821
        CHANNELS 3 Zrotation Xrotation Yrotation
        JOINT Spine3
        {
          OFFSET 0.024556 9.71184 0.0101567
          CHANNELS 3 Zrotation Xrotation Yrotation
          JOINT Neck
          {
            OFFSET 0.152325 10.3757 0.0664015
            CHANNELS 3 Zrotation Xrotation Yrotation
            JOINT Head
            {
              OFFSET 0.134553 9.4858 0.0499874
              CHANNELS 3 Zrotation Xrotation Yrotation
              End Site
              {
                OFFSET 0 15.95 0
              }
            }
          }
          JOINT RightShoulder
          {
            OFFSET -3.19519 6.89024 -0.0330231
            CHANNELS 3 Zrotation Xrotation Yrotation
            JOINT RightArm
            {
              OFFSET -12.6524 0.0927817 0.0603028
              CHANNELS 3 Zrotation Xrotation Yrotation
              JOINT RightForeArm
              {
                OFFSET -26.4983 -0.141459 0.202928
                CHANNELS 3 Zrotation Xrotation Yrotation
                JOINT RightHand
                {
                  OFFSET -25.9883 -0.0240172 0.0141731
                  CHANNELS 3 Zrotation Xrotation Yrotation
                  JOINT RightHandThumb1
                  {
                    OFFSET -2.48905 0.190105 3.12053
                    CHANNELS 3 Zrotation Xrotation Yrotation
                    JOINT RightHandThumb2
                    {
                      OFFSET -3.68274 0 0
                      CHANNELS 3 Zrotation Xrotation Yrotation
                      JOINT RightHandThumb3
                      {
                        OFFSET -2.55832 0 0
                        CHANNELS 3 Zrotation Xrotation Yrotation
                        End Site
                        {
                          OFFSET -2.194 0 0
                        }
                      }
                    }
                  }
                  JOINT RightInHandIndex
                  {
                    OFFSET -3.22368 0.508421 1.97842
                    CHANNELS 3 Zrotation Xrotation Yrotation
                    JOINT RightHandIndex1
                    {
                      OFFSET -5.21684 -0.091368 0.999158
                      CHANNELS 3 Zrotation Xrotation Yrotation
                      JOINT RightHandIndex2
                      {
                        OFFSET -3.61937 0 0
                        CHANNELS 3 Zrotation Xrotation Yrotation
                        JOINT RightHandIndex3
                        {
                          OFFSET -2.0521 0 0
                          CHANNELS 3 Zrotation Xrotation Yrotation
                          End Site
                          {
                            OFFSET -1.805 0 0
                          }
                        }
                      }
                    }
                  }
                  JOINT RightInHandMiddle
                  {
                    OFFSET -3.38211 0.517263 0.756737
                    CHANNELS 3 Zrotation Xrotation Yrotation
                    JOINT RightHandMiddle1
                    {
                      OFFSET -5.17411 -0.084 0.313895
                      CHANNELS 3 Zrotation Xrotation Yrotation
                      JOINT RightHandMiddle2
                      {
                        OFFSET -3.94947 0 0
                        CHANNELS 3 Zrotation Xrotation Yrotation
                        JOINT RightHandMiddle3
                        {
                          OFFSET -2.47579 0 0
                          CHANNELS 3 Zrotation Xrotation Yrotation
                          End Site
                          {
                            OFFSET -1.975 0 0
                          }
                        }
                      }
                    }
                  }
                  JOINT RightInHandRing
                  {
                    OFFSET -3.36516 0.537895 -0.128947
                    CHANNELS 3 Zrotation Xrotation Yrotation
                    JOINT RightHandRing1
                    {
                      OFFSET -4.63474 -0.022105 -0.478947
                      CHANNELS 3 Zrotation Xrotation Yrotation
                      JOINT RightHandRing2
                      {
                        OFFSET -3.44238 0 0
                        CHANNELS 3 Zrotation Xrotation Yrotation
                        JOINT RightHandRing3
                        {
                          OFFSET -2.3881 0 0
                          CHANNELS 3 Zrotation Xrotation Yrotation
                          End Site
                          {
                            OFFSET -1.857 0 0
                          }
                        }
                      }
                    }
                  }
                  JOINT RightInHandPinky
                  {
                    OFFSET -3.16105 0.469368 -1.20179
                    CHANNELS 3 Zrotation Xrotation Yrotation
                    JOINT RightHandPinky1
                    {
                      OFFSET -4.14105 -0.022105 -1.09053
                      CHANNELS 3 Zrotation Xrotation Yrotation
                      JOINT RightHandPinky2
                      {
                        OFFSET -2.75653 0 0
                        CHANNELS 3 Zrotation Xrotation Yrotation
                        JOINT RightHandPinky3
                        {
                          OFFSET -1.74189 0 0
                          CHANNELS 3 Zrotation Xrotation Yrotation
                          End Site
                          {
                            OFFSET -1.645 0 0
                          }
                        }
                      }
                    }
                  }
                }
              }
            }
          }
          JOINT LeftShoulder
          {
            OFFSET 3.28609 6.87948 -0.0751467
            CHANNELS 3 Zrotation Xrotation Yrotation
            JOINT LeftArm
            {
              OFFSET 12.831 -0.0663252 -0.1321
              CHANNELS 3 Zrotation Xrotation Yrotation
              JOINT LeftForeArm
              {
                OFFSET 26.5106 -0.082189 -0.0903645
                CHANNELS 3 Zrotation Xrotation Yrotation
                JOINT LeftHand
                {
                  OFFSET 25.9965 -0.0307163 -0.0535747
                  CHANNELS 3 Zrotation Xrotation Yrotation
                  JOINT LeftHandThumb1
                  {
                    OFFSET 2.48905 0.190105 3.12053
                    CHANNELS 3 Zrotation Xrotation Yrotation
                    JOINT LeftHandThumb2
                    {
                      OFFSET 3.68274 0 0
                      CHANNELS 3 Zrotation Xrotation Yrotation
                      JOINT LeftHandThumb3
                      {
                        OFFSET 2.55832 0 0
                        CHANNELS 3 Zrotation Xrotation Yrotation
                        End Site
                        {
                          OFFSET 2.194 0 0
                        }
                      }
                    }
                  }
                  JOINT LeftInHandIndex
                  {
                    OFFSET 3.22368 0.508421 1.97842
                    CHANNELS 3 Zrotation Xrotation Yrotation
                    JOINT LeftHandIndex1
                    {
                      OFFSET 5.21684 -0.091368 0.999158
                      CHANNELS 3 Zrotation Xrotation Yrotation
                      JOINT LeftHandIndex2
                      {
                        OFFSET 3.61937 0 0
                        CHANNELS 3 Zrotation Xrotation Yrotation
                        JOINT LeftHandIndex3
                        {
                          OFFSET 2.0521 0 0
                          CHANNELS 3 Zrotation Xrotation Yrotation
                          End Site
                          {
                            OFFSET 1.805 0 0
                          }
                        }
                      }
                    }
                  }
                  JOINT LeftInHandMiddle
                  {
                    OFFSET 3.38211 0.517263 0.756737
                    CHANNELS 3 Zrotation Xrotation Yrotation
                    JOINT LeftHandMiddle1
                    {
                      OFFSET 5.17411 -0.084 0.313895
                      CHANNELS 3 Zrotation Xrotation Yrotation
                      JOINT LeftHandMiddle2
                      {
                        OFFSET 3.94947 0 0
                        CHANNELS 3 Zrotation Xrotation Yrotation
                        JOINT LeftHandMiddle3
                        {
                          OFFSET 2.47579 0 0
                          CHANNELS 3 Zrotation Xrotation Yrotation
                          End Site
                          {
                            OFFSET 1.975 0 0
                          }
                        }
                      }
                    }
                  }
                  JOINT LeftInHandRing
                  {
                    OFFSET 3.36516 0.537895 -0.128947
                    CHANNELS 3 Zrotation Xrotation Yrotation
                    JOINT LeftHandRing1
                    {
                      OFFSET 4.63474 -0.022105 -0.478947
                      CHANNELS 3 Zrotation Xrotation Yrotation
                      JOINT LeftHandRing2
                      {
                        OFFSET 3.44238 0 0
                        CHANNELS 3 Zrotation Xrotation Yrotation
                        JOINT LeftHandRing3
                        {
                          OFFSET 2.3881 0 0
                          CHANNELS 3 Zrotation Xrotation Yrotation
                          End Site
                          {
                            OFFSET 1.857 0 0
                          }
                        }
                      }
                    }
                  }
                  JOINT LeftInHandPinky
                  {
                    OFFSET 3.16105 0.469368 -1.20179
                    CHANNELS 3 Zrotation Xrotation Yrotation
                    JOINT LeftHandPinky1
                    {
                      OFFSET 4.14105 -0.022105 -1.09053
                      CHANNELS 3 Zrotation Xrotation Yrotation
                      JOINT LeftHandPinky2
                      {
                        OFFSET 2.75653 0 0
                        CHANNELS 3 Zrotation Xrotation Yrotation
                        JOINT LeftHandPinky3
                        {
                          OFFSET 1.74189 0 0
                          CHANNELS 3 Zrotation Xrotation Yrotation
                          End Site
                          {
                            OFFSET 1.645 0 0
                          }
                        }
                      }
                    }
                  }
                }
              }
            }
          }
        }
      }
    }
  }
}
MOTION
Frames: 2
Frame Time: 0.00833333
3.523837000000000444e+03 8.816430000000001144e+01 1.776279999999999575e+02 2.673519999999999897e+01 1.313790000000000191e+01 -7.056999999999999318e+01 -1.732319999999999993e+01 -5.779399999999999693e+01 -2.194790000000000418e+01 -9.895579999999997156e-01 2.250119999999999720e+01 -1.076179999999999914e+01 6.369220000000000326e+00 8.543179999999997776e+00 2.430109999999999815e+01 1.894480000000000075e+01 -5.098069999999999879e+01 7.100130000000000052e+00 3.562580000000000524e+00 3.125740000000000052e+01 -2.330379999999998120e+00 -1.347150000000000247e+01 -9.348319999999999297e+00 -1.689149999999999707e+01 -4.716390000000000526e+00 1.282110000000000127e+01 1.379549999999999876e+01 -8.963699999999998891e-01 3.182980000000000143e+00 3.406869999999999621e+00 -1.522980000000000000e+00 5.071979999999999933e+00 5.626509999999998790e+00 -6.047780000000000378e-01 -4.659120000000000483e-01 -3.986339999999999328e-01 -6.065219999999998945e-01 -4.771369999999999223e-01 -3.944550000000006662e-01 -1.142200000000000060e+01 -8.735309999999998354e+00 -6.887760000000000105e+00 -2.699869999999999770e+00 -1.164290000000000092e+01 2.424650000000000460e+01 7.186379999999999768e+01 -5.023690000000001987e+00 5.539509999999999934e+01 1.594890000000000185e+01 -5.926209999999999667e+01 6.174629999999993402e+00 1.293609999999999971e+01 -2.225069999999999837e+01 -1.704719999999999658e+01 2.818400000000000105e+01 1.072940000000000005e+01 1.915919999999999845e+01 3.159519999999999717e-15 -3.975690000000000513e-16 -1.000000000000000000e+01 1.255040000000000136e-14 -2.087240000000000366e-15 -1.000000000000000000e+01 -3.180549999999999193e-15 -1.113190000000000089e-14 -6.361109999999999741e-15 1.998179999999999978e+01 8.718970000000000331e-01 2.396399999999999864e+00 2.400000000000000000e+01 -2.733289999999999494e-15 -5.565970000000001576e-15 2.000000000000000000e+01 0.000000000000000000e+00 2.146869999999999010e-14 -3.180549999999999193e-15 -1.113190000000000089e-14 -6.361109999999999741e-15 2.000000000000000000e+01 -5.963539999999999870e-15 -5.565969999999999210e-15 2.400000000000000000e+01 -2.186630000000001376e-15 -1.590280000000000116e-14 2.000000000000000000e+01 -2.782989999999999888e-15 -8.746530000000006858e-15 -3.180549999999999193e-15 -1.113190000000000089e-14 -6.361109999999999741e-15 1.997479999999999833e+01 -1.025649999999999951e+00 -2.819380000000000219e+00 2.400000000000000000e+01 -1.152949999999999772e-14 -6.361109999999998163e-15 2.000000000000000000e+01 1.431249999999999581e-14 1.590279999999996330e-15 -3.180549999999999193e-15 -1.113190000000000089e-14 -6.361109999999999741e-15 1.978150000000000119e+01 -3.009479999999999933e+00 -8.305149999999999366e+00 2.400000000000000000e+01 -5.367190000000000346e-15 -1.272219999999999993e-14 2.000000000000000000e+01 -6.758680000000000401e-15 -6.361109999999999741e-15 1.295579999999999998e+01 -1.493449999999999989e+01 -3.462710000000000576e+01 -3.668429999999999325e+01 2.600910000000000366e+01 -6.836809999999999832e+01 1.594900000000000162e+01 -4.484530000000000882e+01 1.923509999999999920e+01 -2.206089999999999662e+01 -2.293590000000000018e+01 9.616080000000000183e+00 -2.818400000000000105e+01 1.072940000000000005e+01 -1.915919999999999845e+01 6.459240000000000411e-15 0.000000000000000000e+00 1.000000000000000000e+01 -5.898420000000000105e-15 -3.180550000000000376e-15 1.000000000000000000e+01 0.000000000000000000e+00 6.361109999999999741e-15 -1.590280000000000077e-15 -1.998179999999999978e+01 8.718970000000000331e-01 -2.396399999999999864e+00 -2.400000000000000000e+01 -4.770830000000000256e-15 6.361110000000001319e-15 -2.000000000000000000e+01 0.000000000000000000e+00 -9.541660000000000512e-15 0.000000000000000000e+00 6.361109999999999741e-15 -1.590280000000000077e-15 -2.000000000000000000e+01 6.361109999999999741e-15 -1.590280000000000274e-15 -2.400000000000000000e+01 -3.180550000000000771e-15 -9.541660000000002090e-15 -2.000000000000000000e+01 1.590280000000000471e-15 -1.272219999999999993e-14 0.000000000000000000e+00 6.361109999999999741e-15 -1.590280000000000077e-15 -1.997479999999999833e+01 -1.025649999999999951e+00 2.819380000000000219e+00 -2.400000000000000000e+01 6.361110000000001319e-15 -3.180549999999997615e-15 -2.000000000000000000e+01 -1.987850000000000145e-15 -9.541660000000002090e-15 0.000000000000000000e+00 6.361109999999999741e-15 -1.590280000000000077e-15 -1.978150000000000119e+01 -3.009479999999999933e+00 8.305149999999999366e+00 -2.400000000000000000e+01 1.033680000000000025e-14 -7.951389999999999226e-15 -2.000000000000000000e+01 1.192710000000000403e-15 -6.361109999999998163e-15
3.523851999999999862e+03 8.816430000000002565e+01 1.776680000000000064e+02 2.667780000000000129e+01 1.295149999999999935e+01 -7.086659999999997694e+01 -1.698619999999999663e+01 -5.773659999999999570e+01 -2.146600000000000463e+01 -1.039840000000000320e+00 2.244959999999999667e+01 -1.068120000000000047e+01 6.398329999999999629e+00 8.578049999999997510e+00 2.435050000000000381e+01 1.902939999999999898e+01 -5.080609999999998649e+01 7.310879999999999157e+00 3.485109999999998820e+00 3.137030000000000030e+01 -2.226239999999998886e+00 -1.341539999999999822e+01 -9.429220000000002599e+00 -1.682999999999999829e+01 -4.802089999999999748e+00 1.285870000000000246e+01 1.387649999999999828e+01 -9.151930000000000343e-01 3.194440000000000168e+00 3.423150000000000581e+00 -1.553569999999999673e+00 5.089109999999999800e+00 5.650720000000000631e+00 -6.047780000000000378e-01 -4.659119999999999928e-01 -3.986340000000001549e-01 -6.065220000000001166e-01 -4.771369999999999223e-01 -3.944550000000006662e-01 -1.153420000000000023e+01 -8.747719999999999274e+00 -6.783180000000001542e+00 -2.715590000000000170e+00 -1.155419999999999980e+01 2.419600000000000151e+01 7.207429999999999382e+01 -5.472480000000004452e+00 5.504760000000000275e+01 1.756340000000000146e+01 -5.949940000000000140e+01 7.938639999999992369e+00 1.289939999999999998e+01 -2.226150000000000517e+01 -1.696940000000000026e+01 2.818400000000000105e+01 1.072940000000000005e+01 1.915919999999999845e+01 7.711239999999998667e-16 4.373259999999999596e-15 -1.000000000000000000e+01 1.737489999999999761e-14 6.957459999999998476e-15 -1.000000000000000000e+01 -6.361109999999998952e-15 -6.361109999999999741e-15 -3.180549999999999982e-15 1.998179999999999978e+01 8.718970000000000331e-01 2.396399999999999864e+00 2.400000000000000000e+01 6.907769999999999832e-15 2.305900000000000176e-14 2.000000000000000000e+01 1.471010000000000211e-14 9.939230000000000857e-14 -6.361109999999998952e-15 -6.361109999999999741e-15 -3.180549999999999982e-15 2.000000000000000000e+01 -1.192709999999999614e-15 6.361109999999999741e-15 2.400000000000000000e+01 -1.987850000000000145e-15 2.782989999999999888e-14 2.000000000000000000e+01 2.385419999999999543e-14 9.780210000000002308e-14 -6.361109999999998952e-15 -6.361109999999999741e-15 -3.180549999999999982e-15 1.997479999999999833e+01 -1.025649999999999951e+00 -2.819380000000000219e+00 2.400000000000000000e+01 1.192710000000000087e-14 1.431250000000000212e-14 2.000000000000000000e+01 2.385420000000000174e-14 1.017780000000000031e-13 -6.361109999999998952e-15 -6.361109999999999741e-15 -3.180549999999999982e-15 1.978150000000000119e+01 -3.009479999999999933e+00 -8.305149999999999366e+00 2.400000000000000000e+01 -7.752600000000000585e-15 2.385419999999999859e-14 2.000000000000000000e+01 -1.590279999999999485e-15 4.611799999999999721e-14 1.303100000000000236e+01 -1.500609999999999644e+01 -3.491490000000000293e+01 -3.664359999999999928e+01 2.602459999999999951e+01 -6.842740000000000578e+01 1.590990000000000038e+01 -4.415370000000000061e+01 1.916880000000000095e+01 -2.204189999999999827e+01 -2.288520000000000110e+01 9.622859999999999303e+00 -2.818400000000000105e+01 1.072940000000000005e+01 -1.915919999999999845e+01 9.688859999999999433e-15 0.000000000000000000e+00 1.000000000000000000e+01 1.404010000000000030e-14 -6.361109999999998163e-15 1.000000000000000000e+01 0.000000000000000000e+00 -3.180549999999999982e-15 -7.951390000000000212e-16 -1.998179999999999978e+01 8.718970000000000331e-01 -2.396399999999999864e+00 -2.400000000000000000e+01 -6.361109999999999741e-15 2.226389999999999955e-14 -2.000000000000000000e+01 -6.758679999999998824e-15 1.272220000000000151e-14 0.000000000000000000e+00 -3.180549999999999982e-15 -7.951390000000000212e-16 -2.000000000000000000e+01 -1.590279999999999880e-15 3.180550000000000376e-15 -2.400000000000000000e+01 -7.951390000000000804e-15 -4.770830000000000256e-15 -2.000000000000000000e+01 3.578119999999999853e-15 -6.361109999999998952e-15 0.000000000000000000e+00 -3.180549999999999982e-15 -7.951390000000000212e-16 -1.997479999999999833e+01 -1.025649999999999951e+00 2.819380000000000219e+00 -2.400000000000000000e+01 3.180549999999999193e-15 2.067360000000000051e-14 -2.000000000000000000e+01 -4.770830000000001045e-15 3.180549999999999982e-15 0.000000000000000000e+00 -3.180549999999999982e-15 -7.951390000000000212e-16 -1.978150000000000119e+01 -3.009479999999999933e+00 8.305149999999999366e+00 -2.400000000000000000e+01 -2.385420000000000805e-15 7.951389999999999226e-15 -2.000000000000000000e+01 -1.987850000000000145e-15 3.180549999999997615e-15
